# This file uses centimeters as units for non-parametric coordinates.

v -2.020000 -2.000000 1.980000
v 2.000000 -2.000000 1.980000
v 2.000000 -2.000000 -2.080000
v -1.980000 -2.000000 -2.080000
v -2.040000 1.980000 1.980000
v -2.040000 1.980000 -2.080000
v 2.000000 1.980000 -2.080000
v 2.000000 1.980000 1.980000
v -1.980000 -2.000000 -2.080000
v 2.000000 -2.000000 -2.080000
v 2.000000 1.980000 -2.080000
v -2.040000 1.980000 -2.080000
v 2.000000 -2.000000 -2.080000
v 2.000000 -2.000000 1.980000
v 2.000000 1.980000 1.980000
v 2.000000 1.980000 -2.080000
v -2.020000 -2.000000 1.980000
v -1.980000 -2.000000 -2.080000
v -2.040000 1.980000 -2.080000
v -2.040000 1.980000 1.980000
v -0.480000 1.960000 0.320000
v -0.480000 1.960000 -0.440000
v 0.460000 1.960000 -0.440000
v 0.460000 1.960000 0.320000
vn 0.000000 1.000000 0.000000
vn 0.000000 1.000000 0.000000
vn 0.000000 1.000000 0.000000
vn 0.000000 1.000000 0.000000
vn 0.000000 -1.000000 0.000000
vn 0.000000 -1.000000 0.000000
vn 0.000000 -1.000000 0.000000
vn 0.000000 -1.000000 0.000000
vn 0.000000 0.000000 1.000000
vn 0.000000 0.000000 1.000000
vn 0.000000 0.000000 1.000000
vn 0.000000 0.000000 1.000000
vn -1.000000 0.000000 0.000000
vn -1.000000 0.000000 0.000000
vn -1.000000 0.000000 0.000000
vn -1.000000 0.000000 0.000000
vn 0.999937 0.010050 0.004926
vn 0.999937 0.010050 0.004926
vn 0.999937 0.010050 0.004926
vn 0.999937 0.010050 0.004926
vn 0.000000 -1.000000 0.000000
vn 0.000000 -1.000000 0.000000
vn 0.000000 -1.000000 0.000000
vn 0.000000 -1.000000 0.000000
f 1//1 2//2 3//3 4//4
f 5//5 6//6 7//7 8//8
f 9//9 10//10 11//11 12//12
f 13//13 14//14 15//15 16//16
f 17//17 18//18 19//19 20//20
f 21//21 22//22 23//23 24//24
